# xmcd
#
# Track frame offsets:
#	150
#	21571
#	42991
#	61740
#	81071
#	105278
#	122384
#	140930
#	154822
#	170093
#
# Disc length: 2505 seconds
# Revision: 0
# Processed by: cddbd v1.5.2PL0 Copyright (c) Steve Scherf et al.
# Submitted via: dBpowerAMP V12.0
#
DISCID=8109c70a
DTITLE=Roy Schneider - Ten From The Pen
DYEAR=2015
DGENRE=Country
TTITLE0=Cabin in the Sky
TTITLE1=Old Tyme Religion
TTITLE2=Under the Lights of the Angels
TTITLE3=There Ain't No Easy Way
TTITLE4=Climbin the Walls with You
TTITLE5=The Book of Love
TTITLE6=Simon Says
TTITLE7=This Long Road
TTITLE8=High on a Mountain
TTITLE9=Before I Wake
EXTD=
EXTT0=
EXTT1=
EXTT2=
EXTT3=
EXTT4=
EXTT5=
EXTT6=
EXTT7=
EXTT8=
EXTT9=
PLAYORDER=
